<svg xmlns="http://www.w3.org/2000/svg" viewBox="0 0 32 32">
  <rect width="32" height="32" rx="6" fill="#1a237e"/>
  <path d="M6 20.5v2a1 1 0 001 1h2a1 1 0 001-1v-1h12v1a1 1 0 001 1h2a1 1 0 001-1v-2l-1-1H7l-1 1z" fill="rgba(255,255,255,0.3)"/>
  <path d="M8.5 13l2-4a1.5 1.5 0 011.3-.75h8.4a1.5 1.5 0 011.3.75l2 4H8.5z" fill="rgba(255,255,255,0.6)"/>
  <rect x="6" y="14" width="20" height="6" rx="2" fill="white"/>
  <circle cx="10" cy="17" r="1.5" fill="#1a237e"/>
  <circle cx="22" cy="17" r="1.5" fill="#1a237e"/>
  <rect x="13" y="15.5" width="6" height="3" rx="0.5" fill="rgba(26,35,126,0.15)"/>
</svg>
