<svg xmlns="http://www.w3.org/2000/svg" viewBox="0 0 512 512" fill="#1976d2">
  <rect width="512" height="512" rx="64" fill="#1976d2"/>
  <g fill="#ffffff">
    <path d="M400 224h-16l-40-80c-8-16-24-24-40-24h-96c-16 0-32 8-40 24l-40 80h-16c-8 0-16 8-16 16v16c0 8 8 16 16 16h8v80c0 16 16 32 32 32h16c16 0 32-16 32-32v-16h128v16c0 16 16 32 32 32h16c16 0 32-16 32-32v-80h8c8 0 16-8 16-16v-16c0-8-8-16-16-16zm-240 80c-16 0-32-16-32-32s16-32 32-32 32 16 32 32-16 32-32 32zm80-80h-80l24-48c4-8 16-16 24-16h32v64zm80 0h-64v-64h32c8 0 20 8 24 16l24 48h-16zm32 80c-16 0-32-16-32-32s16-32 32-32 32 16 32 32-16 32-32 32z"/>
    <text x="256" y="440" text-anchor="middle" font-family="Arial" font-size="48" font-weight="bold">CV</text>
  </g>
</svg>
